<svg width="19" height="19" viewBox="0 0 19 19" fill="none" xmlns="http://www.w3.org/2000/svg">
<path fill-rule="evenodd" clip-rule="evenodd" d="M11.6203 6.87543C11.6203 9.55564 9.44755 11.7284 6.76734 11.7284C4.08713 11.7284 1.9144 9.55564 1.9144 6.87543C1.9144 4.19523 4.08713 2.02249 6.76734 2.02249C9.44755 2.02249 11.6203 4.19523 11.6203 6.87543ZM10.7311 11.8405C9.64451 12.7091 8.26657 13.2284 6.76734 13.2284C3.25871 13.2284 0.414398 10.3841 0.414398 6.87543C0.414398 3.3668 3.25871 0.522491 6.76734 0.522491C10.276 0.522491 13.1203 3.3668 13.1203 6.87543C13.1203 8.34431 12.6218 9.69675 11.7847 10.7728L18.7048 17.6929L17.6442 18.7536L10.7311 11.8405Z" fill="black" fill-opacity="0.76"/>
</svg>
